<?xml version="1.0" encoding="UTF-8" standalone="no"?>
<svg
   xmlns:dc="http://purl.org/dc/elements/1.1/"
   xmlns:cc="http://creativecommons.org/ns#"
   xmlns:rdf="http://www.w3.org/1999/02/22-rdf-syntax-ns#"
   xmlns:svg="http://www.w3.org/2000/svg"
   xmlns="http://www.w3.org/2000/svg"
   version="1.1"
   id="svg3362"
   viewBox="0 0 885.82677 885.82677"
   height="250mm"
   width="250mm">
  <defs
     id="defs3364" />
  <metadata
     id="metadata3367">
    <rdf:RDF>
      <cc:Work
         rdf:about="">
        <dc:format>image/svg+xml</dc:format>
        <dc:type
           rdf:resource="http://purl.org/dc/dcmitype/StillImage" />
        <dc:title></dc:title>
      </cc:Work>
    </rdf:RDF>
  </metadata>
  <g
     transform="translate(0,-166.53543)"
     id="layer1">
    <rect
       transform="matrix(0.70710678,0.70710678,-0.70710678,0.70710678,0,0)"
       y="152.90379"
       x="616.82135"
       height="370.14664"
       width="61.691105"
       id="rect4177"
       style="fill:#6b00b8;fill-opacity:1;stroke:#000000;stroke-width:6.1691103;stroke-linecap:butt;stroke-linejoin:round;stroke-miterlimit:4;stroke-dasharray:none;stroke-opacity:1" />
    <rect
       transform="matrix(0.70710678,-0.70710678,-0.70710678,-0.70710678,0,0)"
       y="-677.30066"
       x="-214.53163"
       height="370.14664"
       width="61.691105"
       id="rect4177-6"
       style="fill:#6b00b8;fill-opacity:1;stroke:#000000;stroke-width:6.1691103;stroke-linecap:butt;stroke-linejoin:round;stroke-miterlimit:4;stroke-dasharray:none;stroke-opacity:1" />
    <rect
       y="573.63757"
       x="545.55292"
       height="29.646095"
       width="177.8766"
       id="rect4324"
       style="fill:#6b00b8;fill-opacity:1;stroke:#000000;stroke-width:6.12458467;stroke-linecap:butt;stroke-linejoin:round;stroke-miterlimit:4;stroke-dasharray:none;stroke-opacity:1" />
    <path
       id="path4326"
       d="M 515.63226,711.32231 392.19388,587.88273 515.63365,464.44416 639.07342,341.0056 l 93.2601,93.26168 93.26011,93.26171 -1.30729,1.80067 c -1.82445,2.51299 -15.15979,15.67325 -15.5308,15.32688 -0.16718,-0.15608 -38.14127,-38.09577 -84.38705,-84.31055 -46.24578,-46.21478 -84.4984,-84.02686 -85.00584,-84.02686 -1.47747,0 -211.22482,210.08822 -211.22482,211.5681 0,0.83829 35.36594,36.62663 105.15625,106.41228 57.83594,57.83208 105.43763,105.14922 105.78153,105.14922 0.34389,0 38.7194,-38.09333 85.27888,-84.65185 l 84.65361,-84.65186 7.30056,7.24627 c 4.01532,3.98543 7.83024,7.9741 8.47759,8.86369 l 1.17704,1.61744 -93.44633,93.44472 -93.44635,93.44475 -123.43835,-123.43958 z"
       style="fill:#6b00b8;fill-opacity:1;stroke:#000000;stroke-width:6.1691103;stroke-linecap:butt;stroke-linejoin:round;stroke-miterlimit:4;stroke-dasharray:none;stroke-opacity:1" />
  </g>
</svg>
